<svg xmlns="http://www.w3.org/2000/svg" viewBox="0 0 820 1024" width="820" height="1024" role="img" aria-label="Sacred Thailand, Heritage Thailand"><defs><linearGradient id="sky" x1="0" y1="0" x2="0" y2="1"><stop offset="0" stop-color="#ffd9a0"/><stop offset="1" stop-color="#ffb27a"/></linearGradient><linearGradient id="sea" x1="0" y1="0" x2="0" y2="1"><stop offset="0" stop-color="#9c8f6a"/><stop offset="1" stop-color="#6f6142"/></linearGradient><linearGradient id="lbl" x1="0" y1="0" x2="0" y2="1"><stop offset="0" stop-color="#0b1120" stop-opacity="0"/><stop offset="1" stop-color="#0b1120" stop-opacity="0.85"/></linearGradient></defs><rect width="820" height="1024" fill="url(#sky)"/><circle cx="639" cy="266" r="60" fill="#fff1c9" opacity="0.9"/><circle cx="639" cy="266" r="90" fill="#fff1c9" opacity="0.25"/><path d="M0,1024 L0,613 L102,638 L205,624 L308,642 L410,644 L512,599 L615,595 L718,661 L820,615 L820,1024 Z" fill="#8a6b3a" opacity="0.5"/><rect x="0" y="634" width="820" height="390" fill="#e7d3a8"/><g transform="translate(410,737)"><polygon points="-105.0,0.0 105.0,0.0 0,-42.0" fill="#b8321f" opacity="0.92"/><polygon points="-81.0,-33.0 81.0,-33.0 0,-75.0" fill="#b8321f" opacity="0.87"/><polygon points="-60.0,-66.0 60.0,-66.0 0,-108.0" fill="#b8321f" opacity="0.8200000000000001"/><polygon points="-39.0,-99.0 39.0,-99.0 0,-141.0" fill="#b8321f" opacity="0.77"/><rect x="-21.0" y="0" width="42.0" height="69.0" fill="#d9a441"/><polygon points="-9.0,-132.0 9.0,-132.0 0,-180.0" fill="#d9a441"/></g><g transform="translate(229,716)"><polygon points="-63.0,0.0 63.0,0.0 0,-25.2" fill="#b8321f" opacity="0.92"/><polygon points="-48.6,-19.8 48.6,-19.8 0,-45.0" fill="#b8321f" opacity="0.87"/><polygon points="-36.0,-39.6 36.0,-39.6 0,-64.8" fill="#b8321f" opacity="0.8200000000000001"/><polygon points="-23.400000000000002,-59.4 23.400000000000002,-59.4 0,-84.6" fill="#b8321f" opacity="0.77"/><rect x="-12.6" y="0" width="25.2" height="41.4" fill="#d9a441"/><polygon points="-5.4,-79.2 5.4,-79.2 0,-108.0" fill="#d9a441"/></g><g transform="translate(590,716)"><polygon points="-63.0,0.0 63.0,0.0 0,-25.2" fill="#b8321f" opacity="0.92"/><polygon points="-48.6,-19.8 48.6,-19.8 0,-45.0" fill="#b8321f" opacity="0.87"/><polygon points="-36.0,-39.6 36.0,-39.6 0,-64.8" fill="#b8321f" opacity="0.8200000000000001"/><polygon points="-23.400000000000002,-59.4 23.400000000000002,-59.4 0,-84.6" fill="#b8321f" opacity="0.77"/><rect x="-12.6" y="0" width="25.2" height="41.4" fill="#d9a441"/><polygon points="-5.4,-79.2 5.4,-79.2 0,-108.0" fill="#d9a441"/></g><rect width="820" height="1024" fill="#ffffff" opacity="0.05"/><rect x="0" y="884" width="820" height="140" fill="url(#lbl)"/><text x="40" y="966" font-family="Georgia, 'Times New Roman', serif" font-size="52" font-weight="700" fill="#ffffff">Sacred Thailand</text><rect x="42" y="978" width="106" height="30" rx="15" fill="#0f8378"/><text x="52" y="999" font-family="Arial, sans-serif" font-size="18" font-weight="700" fill="#ffffff">HERITAGE</text><text x="780" y="999" text-anchor="end" font-family="Arial, sans-serif" font-size="16" fill="#ffffff" opacity="0.7">ThaiTripster — placeholder</text></svg>