<svg xmlns="http://www.w3.org/2000/svg" viewBox="0 0 1000 680" width="1000" height="680" role="img" aria-label="Bangkok, Central Thailand"><defs><linearGradient id="sky" x1="0" y1="0" x2="0" y2="1"><stop offset="0" stop-color="#3b3a6b"/><stop offset="1" stop-color="#b96b8f"/></linearGradient><linearGradient id="sea" x1="0" y1="0" x2="0" y2="1"><stop offset="0" stop-color="#25324f"/><stop offset="1" stop-color="#141a2e"/></linearGradient><linearGradient id="lbl" x1="0" y1="0" x2="0" y2="1"><stop offset="0" stop-color="#0b1120" stop-opacity="0"/><stop offset="1" stop-color="#0b1120" stop-opacity="0.85"/></linearGradient></defs><rect width="1000" height="680" fill="url(#sky)"/><circle cx="780" cy="176" r="60" fill="#ffd9a0" opacity="0.9"/><circle cx="780" cy="176" r="90" fill="#ffd9a0" opacity="0.25"/><rect x="0" y="377" width="36" height="74" fill="#101a30"/><rect x="14" y="392" width="4" height="6" fill="#ffd98a" opacity="0.9"/><rect x="4" y="416" width="4" height="6" fill="#ffd98a" opacity="0.5"/><rect x="51" y="360" width="56" height="91" fill="#101a30"/><rect x="78" y="387" width="4" height="6" fill="#ffd98a" opacity="0.9"/><rect x="91" y="386" width="4" height="6" fill="#ffd98a" opacity="0.9"/><rect x="91" y="428" width="4" height="6" fill="#ffd98a" opacity="0.5"/><rect x="114" y="303" width="39" height="148" fill="#101a30"/><rect x="138" y="424" width="4" height="6" fill="#ffd98a" opacity="0.5"/><rect x="120" y="390" width="4" height="6" fill="#ffd98a" opacity="0.2"/><rect x="129" y="343" width="4" height="6" fill="#ffd98a" opacity="0.9"/><rect x="131" y="321" width="4" height="6" fill="#ffd98a" opacity="0.2"/><rect x="141" y="310" width="4" height="6" fill="#ffd98a" opacity="0.5"/><rect x="165" y="272" width="60" height="179" fill="#101a30"/><rect x="193" y="346" width="4" height="6" fill="#ffd98a" opacity="0.2"/><rect x="183" y="353" width="4" height="6" fill="#ffd98a" opacity="0.9"/><rect x="183" y="412" width="4" height="6" fill="#ffd98a" opacity="0.9"/><rect x="173" y="354" width="4" height="6" fill="#ffd98a" opacity="0.5"/><rect x="194" y="385" width="4" height="6" fill="#ffd98a" opacity="0.2"/><rect x="185" y="443" width="4" height="6" fill="#ffd98a" opacity="0.9"/><rect x="231" y="302" width="61" height="149" fill="#101a30"/><rect x="257" y="333" width="4" height="6" fill="#ffd98a" opacity="0.5"/><rect x="272" y="351" width="4" height="6" fill="#ffd98a" opacity="0.2"/><rect x="245" y="352" width="4" height="6" fill="#ffd98a" opacity="0.9"/><rect x="270" y="346" width="4" height="6" fill="#ffd98a" opacity="0.2"/><rect x="265" y="340" width="4" height="6" fill="#ffd98a" opacity="0.5"/><rect x="308" y="387" width="38" height="64" fill="#101a30"/><rect x="321" y="398" width="4" height="6" fill="#ffd98a" opacity="0.5"/><rect x="331" y="441" width="4" height="6" fill="#ffd98a" opacity="0.9"/><rect x="355" y="370" width="40" height="81" fill="#101a30"/><rect x="377" y="434" width="4" height="6" fill="#ffd98a" opacity="0.2"/><rect x="378" y="381" width="4" height="6" fill="#ffd98a" opacity="0.2"/><rect x="365" y="406" width="4" height="6" fill="#ffd98a" opacity="0.9"/><rect x="403" y="369" width="50" height="82" fill="#101a30"/><rect x="429" y="400" width="4" height="6" fill="#ffd98a" opacity="0.5"/><rect x="414" y="428" width="4" height="6" fill="#ffd98a" opacity="0.5"/><rect x="445" y="414" width="4" height="6" fill="#ffd98a" opacity="0.5"/><rect x="469" y="362" width="43" height="89" fill="#101a30"/><rect x="475" y="372" width="4" height="6" fill="#ffd98a" opacity="0.9"/><rect x="491" y="441" width="4" height="6" fill="#ffd98a" opacity="0.2"/><rect x="474" y="405" width="4" height="6" fill="#ffd98a" opacity="0.9"/><rect x="521" y="274" width="29" height="177" fill="#101a30"/><rect x="530" y="442" width="4" height="6" fill="#ffd98a" opacity="0.2"/><rect x="542" y="358" width="4" height="6" fill="#ffd98a" opacity="0.9"/><rect x="533" y="360" width="4" height="6" fill="#ffd98a" opacity="0.9"/><rect x="532" y="321" width="4" height="6" fill="#ffd98a" opacity="0.5"/><rect x="540" y="361" width="4" height="6" fill="#ffd98a" opacity="0.9"/><rect x="526" y="321" width="4" height="6" fill="#ffd98a" opacity="0.2"/><rect x="559" y="269" width="36" height="182" fill="#101a30"/><rect x="566" y="284" width="4" height="6" fill="#ffd98a" opacity="0.5"/><rect x="576" y="441" width="4" height="6" fill="#ffd98a" opacity="0.5"/><rect x="586" y="385" width="4" height="6" fill="#ffd98a" opacity="0.2"/><rect x="581" y="358" width="4" height="6" fill="#ffd98a" opacity="0.9"/><rect x="573" y="431" width="4" height="6" fill="#ffd98a" opacity="0.2"/><rect x="584" y="430" width="4" height="6" fill="#ffd98a" opacity="0.5"/><rect x="604" y="265" width="45" height="186" fill="#101a30"/><rect x="618" y="343" width="4" height="6" fill="#ffd98a" opacity="0.9"/><rect x="629" y="389" width="4" height="6" fill="#ffd98a" opacity="0.5"/><rect x="619" y="338" width="4" height="6" fill="#ffd98a" opacity="0.5"/><rect x="610" y="438" width="4" height="6" fill="#ffd98a" opacity="0.2"/><rect x="630" y="279" width="4" height="6" fill="#ffd98a" opacity="0.2"/><rect x="612" y="438" width="4" height="6" fill="#ffd98a" opacity="0.2"/><rect x="636" y="421" width="4" height="6" fill="#ffd98a" opacity="0.2"/><rect x="661" y="286" width="48" height="165" fill="#101a30"/><rect x="699" y="325" width="4" height="6" fill="#ffd98a" opacity="0.9"/><rect x="673" y="316" width="4" height="6" fill="#ffd98a" opacity="0.2"/><rect x="697" y="310" width="4" height="6" fill="#ffd98a" opacity="0.5"/><rect x="697" y="375" width="4" height="6" fill="#ffd98a" opacity="0.9"/><rect x="671" y="384" width="4" height="6" fill="#ffd98a" opacity="0.2"/><rect x="693" y="363" width="4" height="6" fill="#ffd98a" opacity="0.2"/><rect x="720" y="294" width="31" height="157" fill="#101a30"/><rect x="726" y="380" width="4" height="6" fill="#ffd98a" opacity="0.5"/><rect x="735" y="320" width="4" height="6" fill="#ffd98a" opacity="0.5"/><rect x="726" y="426" width="4" height="6" fill="#ffd98a" opacity="0.9"/><rect x="730" y="349" width="4" height="6" fill="#ffd98a" opacity="0.9"/><rect x="726" y="378" width="4" height="6" fill="#ffd98a" opacity="0.5"/><rect x="728" y="440" width="4" height="6" fill="#ffd98a" opacity="0.5"/><rect x="759" y="256" width="46" height="195" fill="#101a30"/><rect x="766" y="282" width="4" height="6" fill="#ffd98a" opacity="0.2"/><rect x="790" y="328" width="4" height="6" fill="#ffd98a" opacity="0.5"/><rect x="777" y="391" width="4" height="6" fill="#ffd98a" opacity="0.5"/><rect x="765" y="421" width="4" height="6" fill="#ffd98a" opacity="0.9"/><rect x="785" y="430" width="4" height="6" fill="#ffd98a" opacity="0.5"/><rect x="777" y="406" width="4" height="6" fill="#ffd98a" opacity="0.9"/><rect x="776" y="291" width="4" height="6" fill="#ffd98a" opacity="0.2"/><rect x="812" y="344" width="46" height="107" fill="#101a30"/><rect x="835" y="434" width="4" height="6" fill="#ffd98a" opacity="0.2"/><rect x="822" y="410" width="4" height="6" fill="#ffd98a" opacity="0.9"/><rect x="835" y="395" width="4" height="6" fill="#ffd98a" opacity="0.2"/><rect x="837" y="399" width="4" height="6" fill="#ffd98a" opacity="0.2"/><rect x="866" y="341" width="59" height="110" fill="#101a30"/><rect x="906" y="442" width="4" height="6" fill="#ffd98a" opacity="0.2"/><rect x="871" y="352" width="4" height="6" fill="#ffd98a" opacity="0.5"/><rect x="896" y="434" width="4" height="6" fill="#ffd98a" opacity="0.2"/><rect x="885" y="430" width="4" height="6" fill="#ffd98a" opacity="0.5"/><rect x="937" y="371" width="44" height="80" fill="#101a30"/><rect x="966" y="401" width="4" height="6" fill="#ffd98a" opacity="0.2"/><rect x="952" y="406" width="4" height="6" fill="#ffd98a" opacity="0.2"/><rect x="946" y="430" width="4" height="6" fill="#ffd98a" opacity="0.9"/><rect x="990" y="363" width="62" height="88" fill="#101a30"/><rect x="1033" y="419" width="4" height="6" fill="#ffd98a" opacity="0.9"/><rect x="998" y="417" width="4" height="6" fill="#ffd98a" opacity="0.9"/><rect x="1010" y="397" width="4" height="6" fill="#ffd98a" opacity="0.9"/><rect x="0" y="400" width="40" height="81" fill="#0a1122"/><rect x="22" y="411" width="4" height="6" fill="#ffd98a" opacity="0.2"/><rect x="7" y="445" width="4" height="6" fill="#ffd98a" opacity="0.2"/><rect x="10" y="412" width="4" height="6" fill="#ffd98a" opacity="0.5"/><rect x="46" y="362" width="31" height="119" fill="#0a1122"/><rect x="66" y="381" width="4" height="6" fill="#ffd98a" opacity="0.9"/><rect x="63" y="429" width="4" height="6" fill="#ffd98a" opacity="0.9"/><rect x="61" y="409" width="4" height="6" fill="#ffd98a" opacity="0.9"/><rect x="51" y="458" width="4" height="6" fill="#ffd98a" opacity="0.5"/><rect x="88" y="341" width="47" height="140" fill="#0a1122"/><rect x="112" y="433" width="4" height="6" fill="#ffd98a" opacity="0.9"/><rect x="112" y="428" width="4" height="6" fill="#ffd98a" opacity="0.5"/><rect x="95" y="437" width="4" height="6" fill="#ffd98a" opacity="0.2"/><rect x="94" y="373" width="4" height="6" fill="#ffd98a" opacity="0.2"/><rect x="111" y="445" width="4" height="6" fill="#ffd98a" opacity="0.5"/><rect x="147" y="379" width="44" height="102" fill="#0a1122"/><rect x="177" y="447" width="4" height="6" fill="#ffd98a" opacity="0.9"/><rect x="154" y="411" width="4" height="6" fill="#ffd98a" opacity="0.5"/><rect x="179" y="449" width="4" height="6" fill="#ffd98a" opacity="0.5"/><rect x="204" y="349" width="31" height="132" fill="#0a1122"/><rect x="211" y="396" width="4" height="6" fill="#ffd98a" opacity="0.5"/><rect x="215" y="469" width="4" height="6" fill="#ffd98a" opacity="0.9"/><rect x="222" y="423" width="4" height="6" fill="#ffd98a" opacity="0.5"/><rect x="214" y="397" width="4" height="6" fill="#ffd98a" opacity="0.5"/><rect x="218" y="409" width="4" height="6" fill="#ffd98a" opacity="0.9"/><rect x="250" y="328" width="45" height="153" fill="#0a1122"/><rect x="256" y="432" width="4" height="6" fill="#ffd98a" opacity="0.2"/><rect x="273" y="429" width="4" height="6" fill="#ffd98a" opacity="0.5"/><rect x="263" y="388" width="4" height="6" fill="#ffd98a" opacity="0.2"/><rect x="265" y="465" width="4" height="6" fill="#ffd98a" opacity="0.5"/><rect x="259" y="350" width="4" height="6" fill="#ffd98a" opacity="0.9"/><rect x="303" y="318" width="38" height="163" fill="#0a1122"/><rect x="317" y="461" width="4" height="6" fill="#ffd98a" opacity="0.5"/><rect x="309" y="391" width="4" height="6" fill="#ffd98a" opacity="0.2"/><rect x="314" y="344" width="4" height="6" fill="#ffd98a" opacity="0.5"/><rect x="330" y="365" width="4" height="6" fill="#ffd98a" opacity="0.5"/><rect x="333" y="426" width="4" height="6" fill="#ffd98a" opacity="0.5"/><rect x="332" y="346" width="4" height="6" fill="#ffd98a" opacity="0.9"/><rect x="349" y="419" width="52" height="62" fill="#0a1122"/><rect x="386" y="434" width="4" height="6" fill="#ffd98a" opacity="0.5"/><rect x="353" y="445" width="4" height="6" fill="#ffd98a" opacity="0.5"/><rect x="413" y="403" width="39" height="78" fill="#0a1122"/><rect x="440" y="470" width="4" height="6" fill="#ffd98a" opacity="0.2"/><rect x="435" y="413" width="4" height="6" fill="#ffd98a" opacity="0.2"/><rect x="466" y="365" width="42" height="116" fill="#0a1122"/><rect x="473" y="436" width="4" height="6" fill="#ffd98a" opacity="0.9"/><rect x="476" y="471" width="4" height="6" fill="#ffd98a" opacity="0.5"/><rect x="475" y="406" width="4" height="6" fill="#ffd98a" opacity="0.9"/><rect x="473" y="429" width="4" height="6" fill="#ffd98a" opacity="0.2"/><rect x="515" y="417" width="41" height="64" fill="#0a1122"/><rect x="545" y="454" width="4" height="6" fill="#ffd98a" opacity="0.9"/><rect x="538" y="471" width="4" height="6" fill="#ffd98a" opacity="0.2"/><rect x="566" y="302" width="32" height="179" fill="#0a1122"/><rect x="590" y="385" width="4" height="6" fill="#ffd98a" opacity="0.5"/><rect x="576" y="332" width="4" height="6" fill="#ffd98a" opacity="0.2"/><rect x="577" y="352" width="4" height="6" fill="#ffd98a" opacity="0.2"/><rect x="573" y="312" width="4" height="6" fill="#ffd98a" opacity="0.2"/><rect x="577" y="422" width="4" height="6" fill="#ffd98a" opacity="0.9"/><rect x="585" y="357" width="4" height="6" fill="#ffd98a" opacity="0.2"/><rect x="613" y="384" width="53" height="97" fill="#0a1122"/><rect x="632" y="404" width="4" height="6" fill="#ffd98a" opacity="0.9"/><rect x="639" y="455" width="4" height="6" fill="#ffd98a" opacity="0.5"/><rect x="643" y="441" width="4" height="6" fill="#ffd98a" opacity="0.9"/><rect x="680" y="317" width="57" height="164" fill="#0a1122"/><rect x="694" y="401" width="4" height="6" fill="#ffd98a" opacity="0.5"/><rect x="717" y="471" width="4" height="6" fill="#ffd98a" opacity="0.5"/><rect x="706" y="352" width="4" height="6" fill="#ffd98a" opacity="0.2"/><rect x="728" y="390" width="4" height="6" fill="#ffd98a" opacity="0.2"/><rect x="729" y="466" width="4" height="6" fill="#ffd98a" opacity="0.5"/><rect x="688" y="339" width="4" height="6" fill="#ffd98a" opacity="0.5"/><rect x="745" y="334" width="35" height="147" fill="#0a1122"/><rect x="770" y="452" width="4" height="6" fill="#ffd98a" opacity="0.5"/><rect x="771" y="386" width="4" height="6" fill="#ffd98a" opacity="0.2"/><rect x="751" y="428" width="4" height="6" fill="#ffd98a" opacity="0.5"/><rect x="768" y="440" width="4" height="6" fill="#ffd98a" opacity="0.5"/><rect x="770" y="398" width="4" height="6" fill="#ffd98a" opacity="0.2"/><rect x="790" y="285" width="57" height="196" fill="#0a1122"/><rect x="812" y="364" width="4" height="6" fill="#ffd98a" opacity="0.9"/><rect x="827" y="322" width="4" height="6" fill="#ffd98a" opacity="0.9"/><rect x="795" y="399" width="4" height="6" fill="#ffd98a" opacity="0.5"/><rect x="830" y="318" width="4" height="6" fill="#ffd98a" opacity="0.2"/><rect x="838" y="411" width="4" height="6" fill="#ffd98a" opacity="0.5"/><rect x="801" y="391" width="4" height="6" fill="#ffd98a" opacity="0.9"/><rect x="795" y="468" width="4" height="6" fill="#ffd98a" opacity="0.2"/><rect x="854" y="402" width="55" height="79" fill="#0a1122"/><rect x="900" y="420" width="4" height="6" fill="#ffd98a" opacity="0.9"/><rect x="859" y="421" width="4" height="6" fill="#ffd98a" opacity="0.2"/><rect x="868" y="446" width="4" height="6" fill="#ffd98a" opacity="0.5"/><rect x="920" y="412" width="58" height="69" fill="#0a1122"/><rect x="958" y="467" width="4" height="6" fill="#ffd98a" opacity="0.2"/><rect x="951" y="468" width="4" height="6" fill="#ffd98a" opacity="0.5"/><rect x="993" y="403" width="60" height="78" fill="#0a1122"/><rect x="1004" y="442" width="4" height="6" fill="#ffd98a" opacity="0.5"/><rect x="1034" y="448" width="4" height="6" fill="#ffd98a" opacity="0.9"/><rect x="1005" y="439" width="4" height="6" fill="#ffd98a" opacity="0.2"/><rect x="0" y="451" width="1000" height="680" fill="url(#sea)" opacity="0.5"/><rect width="1000" height="680" fill="#ffffff" opacity="0.05"/><rect x="0" y="540" width="1000" height="140" fill="url(#lbl)"/><text x="40" y="622" font-family="Georgia, 'Times New Roman', serif" font-size="52" font-weight="700" fill="#ffffff">Bangkok</text><rect x="42" y="634" width="95" height="30" rx="15" fill="#0f8378"/><text x="52" y="655" font-family="Arial, sans-serif" font-size="18" font-weight="700" fill="#ffffff">CENTRAL</text><text x="960" y="655" text-anchor="end" font-family="Arial, sans-serif" font-size="16" fill="#ffffff" opacity="0.7">ThaiTripster — placeholder</text></svg>