<svg xmlns="http://www.w3.org/2000/svg" viewBox="0 0 700 460" width="700" height="460" role="img" aria-label="Eating Isan, Food Thailand"><defs><linearGradient id="sky" x1="0" y1="0" x2="0" y2="1"><stop offset="0" stop-color="#bfe3d9"/><stop offset="1" stop-color="#f6e8c8"/></linearGradient><linearGradient id="sea" x1="0" y1="0" x2="0" y2="1"><stop offset="0" stop-color="#3aa7c4"/><stop offset="1" stop-color="#1f6f95"/></linearGradient><linearGradient id="lbl" x1="0" y1="0" x2="0" y2="1"><stop offset="0" stop-color="#0b1120" stop-opacity="0"/><stop offset="1" stop-color="#0b1120" stop-opacity="0.85"/></linearGradient></defs><rect width="700" height="460" fill="url(#sky)"/><circle cx="546" cy="119" r="60" fill="#ffe9b0" opacity="0.9"/><circle cx="546" cy="119" r="90" fill="#ffe9b0" opacity="0.25"/><path d="M0,460 L0,234 L88,259 L175,245 L262,263 L350,265 L438,220 L525,216 L612,282 L700,236 L700,460 Z" fill="#356b4d" opacity="0.7"/><path d="M0,460 L0,295 Q350.0,275 700,295 L700,460 Z" fill="url(#sea)"/><path d="M0,460 L0,391 Q210.0,377 350.0,395 T700,391 L700,460 Z" fill="#cfe0a6" opacity="0.0"/><path d="M105,291 L595,291 560,259 140,259 Z" fill="#6b4a2b" opacity="0.85"/><rect width="700" height="460" fill="#ffffff" opacity="0.05"/><rect x="0" y="320" width="700" height="140" fill="url(#lbl)"/><text x="40" y="402" font-family="Georgia, 'Times New Roman', serif" font-size="52" font-weight="700" fill="#ffffff">Eating Isan</text><rect x="42" y="414" width="62" height="30" rx="15" fill="#0f8378"/><text x="52" y="435" font-family="Arial, sans-serif" font-size="18" font-weight="700" fill="#ffffff">FOOD</text><text x="660" y="435" text-anchor="end" font-family="Arial, sans-serif" font-size="16" fill="#ffffff" opacity="0.7">ThaiTripster — placeholder</text></svg>