<svg xmlns="http://www.w3.org/2000/svg" viewBox="0 0 700 460" width="700" height="460" role="img" aria-label="60-Day Thailand, Guide Thailand"><defs><linearGradient id="sky" x1="0" y1="0" x2="0" y2="1"><stop offset="0" stop-color="#7ec9e8"/><stop offset="1" stop-color="#d5f2ec"/></linearGradient><linearGradient id="sea" x1="0" y1="0" x2="0" y2="1"><stop offset="0" stop-color="#25c3b0"/><stop offset="1" stop-color="#0d7d78"/></linearGradient><linearGradient id="lbl" x1="0" y1="0" x2="0" y2="1"><stop offset="0" stop-color="#0b1120" stop-opacity="0"/><stop offset="1" stop-color="#0b1120" stop-opacity="0.85"/></linearGradient></defs><rect width="700" height="460" fill="url(#sky)"/><circle cx="546" cy="119" r="60" fill="#fff0c2" opacity="0.9"/><circle cx="546" cy="119" r="90" fill="#fff0c2" opacity="0.25"/><path d="M0,460 L0,238 L88,235 L175,243 L262,268 L350,236 L438,241 L525,254 L612,238 L700,259 L700,460 Z" fill="#1f5a4a" opacity="0.55"/><path d="M252.5209321093786,285 Q260.5209321093786,61.55560602248721 298.7800923825165,61.55560602248721 Q337.03925265565437,61.55560602248721 345.03925265565437,285 Z" fill="#1f5a4a" opacity="0.9"/><path d="M132.17797513210417,285 Q140.17797513210417,161.50832960782668 168.93276074944856,161.50832960782668 Q197.68754636679296,161.50832960782668 205.68754636679296,285 Z" fill="#1f5a4a" opacity="0.9"/><path d="M105.06012995139172,285 Q113.06012995139172,146.19715978999633 135.32429872800373,146.19715978999633 Q157.58846750461572,146.19715978999633 165.58846750461572,285 Z" fill="#1f5a4a" opacity="0.9"/><path d="M297.9946094501718,285 Q305.9946094501718,81.77876862822743 357.67939676149837,81.77876862822743 Q409.3641840728249,81.77876862822743 417.3641840728249,285 Z" fill="#1f5a4a" opacity="0.9"/><rect x="0" y="285" width="700" height="175" fill="url(#sea)"/><path d="M0,285 Q350.0,315 700,285 L700,460 L0,460 Z" fill="#e9dcb8" opacity="0.0"/><path d="M0,460 L0,395 Q350.0,368 700,395 L700,460 Z" fill="#e9dcb8"/><g transform="translate(98,414)"><path d="M0,0 Q6.6000000000000005,-44.0 2.2,-88.0" stroke="#6b4a2b" stroke-width="7.700000000000001" fill="none"/><path d="M2.2,-88.0 Q-39.07934933974201,-125.15068719961914 -47.358698679484014,-122.70137439923829" stroke="#1f6b4a" stroke-width="5.5" fill="none" stroke-linecap="round"/><path d="M2.2,-88.0 Q-18.084202417656158,-135.21581055785867 -23.368404835312315,-142.83162111571733" stroke="#1f6b4a" stroke-width="5.5" fill="none" stroke-linecap="round"/><path d="M2.2,-88.0 Q2.200000000000002,-138.05 2.2000000000000037,-148.5" stroke="#1f6b4a" stroke-width="5.5" fill="none" stroke-linecap="round"/><path d="M2.2,-88.0 Q22.484202417656157,-135.21581055785867 27.768404835312317,-142.83162111571733" stroke="#1f6b4a" stroke-width="5.5" fill="none" stroke-linecap="round"/><path d="M2.2,-88.0 Q43.47934933974201,-125.15068719961914 51.75869867948401,-122.70137439923829" stroke="#1f6b4a" stroke-width="5.5" fill="none" stroke-linecap="round"/></g><g transform="translate(168,432)"><path d="M0,0 Q4.800000000000001,-32.0 1.6,-64.0" stroke="#6b4a2b" stroke-width="5.6000000000000005" fill="none"/><path d="M1.6,-64.0 Q-32.92134497435782,-91.01868159972301 -34.442689948715646,-89.23736319944602" stroke="#1f6b4a" stroke-width="4.0" fill="none" stroke-linecap="round"/><path d="M1.6,-64.0 Q-15.197601758295384,-98.33877131480631 -16.99520351659077,-103.8775426296126" stroke="#1f6b4a" stroke-width="4.0" fill="none" stroke-linecap="round"/><path d="M1.6,-64.0 Q1.6000000000000014,-100.4 1.6000000000000028,-108.0" stroke="#1f6b4a" stroke-width="4.0" fill="none" stroke-linecap="round"/><path d="M1.6,-64.0 Q18.397601758295387,-98.33877131480631 20.195203516590777,-103.8775426296126" stroke="#1f6b4a" stroke-width="4.0" fill="none" stroke-linecap="round"/><path d="M1.6,-64.0 Q36.121344974357825,-91.01868159972301 37.64268994871564,-89.23736319944602" stroke="#1f6b4a" stroke-width="4.0" fill="none" stroke-linecap="round"/></g><g transform="translate(420,325)"><path d="M-34,0 Q0,18 34,0 L26,10 -26,10 Z" fill="#8a5a2b"/><rect x="-2" y="-30" width="3" height="30" fill="#5a3a1a"/></g><rect width="700" height="460" fill="#ffffff" opacity="0.05"/><rect x="0" y="320" width="700" height="140" fill="url(#lbl)"/><text x="40" y="402" font-family="Georgia, 'Times New Roman', serif" font-size="52" font-weight="700" fill="#ffffff">60-Day Thailand</text><rect x="42" y="414" width="73" height="30" rx="15" fill="#0f8378"/><text x="52" y="435" font-family="Arial, sans-serif" font-size="18" font-weight="700" fill="#ffffff">GUIDE</text><text x="660" y="435" text-anchor="end" font-family="Arial, sans-serif" font-size="16" fill="#ffffff" opacity="0.7">ThaiTripster — placeholder</text></svg>