<svg xmlns="http://www.w3.org/2000/svg" viewBox="0 0 1000 680" width="1000" height="680" role="img" aria-label="Chiang Mai, Northern Thailand"><defs><linearGradient id="sky" x1="0" y1="0" x2="0" y2="1"><stop offset="0" stop-color="#ffd9a0"/><stop offset="1" stop-color="#ffb27a"/></linearGradient><linearGradient id="sea" x1="0" y1="0" x2="0" y2="1"><stop offset="0" stop-color="#9c8f6a"/><stop offset="1" stop-color="#6f6142"/></linearGradient><linearGradient id="lbl" x1="0" y1="0" x2="0" y2="1"><stop offset="0" stop-color="#0b1120" stop-opacity="0"/><stop offset="1" stop-color="#0b1120" stop-opacity="0.85"/></linearGradient></defs><rect width="1000" height="680" fill="url(#sky)"/><circle cx="780" cy="176" r="60" fill="#fff1c9" opacity="0.9"/><circle cx="780" cy="176" r="90" fill="#fff1c9" opacity="0.25"/><path d="M0,680 L0,400 L125,425 L250,411 L375,429 L500,431 L625,386 L750,382 L875,448 L1000,402 L1000,680 Z" fill="#8a6b3a" opacity="0.5"/><rect x="0" y="421" width="1000" height="259" fill="#e7d3a8"/><g transform="translate(500,489)"><polygon points="-105.0,0.0 105.0,0.0 0,-42.0" fill="#b8321f" opacity="0.92"/><polygon points="-81.0,-33.0 81.0,-33.0 0,-75.0" fill="#b8321f" opacity="0.87"/><polygon points="-60.0,-66.0 60.0,-66.0 0,-108.0" fill="#b8321f" opacity="0.8200000000000001"/><polygon points="-39.0,-99.0 39.0,-99.0 0,-141.0" fill="#b8321f" opacity="0.77"/><rect x="-21.0" y="0" width="42.0" height="69.0" fill="#d9a441"/><polygon points="-9.0,-132.0 9.0,-132.0 0,-180.0" fill="#d9a441"/></g><g transform="translate(280,475)"><polygon points="-63.0,0.0 63.0,0.0 0,-25.2" fill="#b8321f" opacity="0.92"/><polygon points="-48.6,-19.8 48.6,-19.8 0,-45.0" fill="#b8321f" opacity="0.87"/><polygon points="-36.0,-39.6 36.0,-39.6 0,-64.8" fill="#b8321f" opacity="0.8200000000000001"/><polygon points="-23.400000000000002,-59.4 23.400000000000002,-59.4 0,-84.6" fill="#b8321f" opacity="0.77"/><rect x="-12.6" y="0" width="25.2" height="41.4" fill="#d9a441"/><polygon points="-5.4,-79.2 5.4,-79.2 0,-108.0" fill="#d9a441"/></g><g transform="translate(720,475)"><polygon points="-63.0,0.0 63.0,0.0 0,-25.2" fill="#b8321f" opacity="0.92"/><polygon points="-48.6,-19.8 48.6,-19.8 0,-45.0" fill="#b8321f" opacity="0.87"/><polygon points="-36.0,-39.6 36.0,-39.6 0,-64.8" fill="#b8321f" opacity="0.8200000000000001"/><polygon points="-23.400000000000002,-59.4 23.400000000000002,-59.4 0,-84.6" fill="#b8321f" opacity="0.77"/><rect x="-12.6" y="0" width="25.2" height="41.4" fill="#d9a441"/><polygon points="-5.4,-79.2 5.4,-79.2 0,-108.0" fill="#d9a441"/></g><rect width="1000" height="680" fill="#ffffff" opacity="0.05"/><rect x="0" y="540" width="1000" height="140" fill="url(#lbl)"/><text x="40" y="622" font-family="Georgia, 'Times New Roman', serif" font-size="52" font-weight="700" fill="#ffffff">Chiang Mai</text><rect x="42" y="634" width="106" height="30" rx="15" fill="#0f8378"/><text x="52" y="655" font-family="Arial, sans-serif" font-size="18" font-weight="700" fill="#ffffff">NORTHERN</text><text x="960" y="655" text-anchor="end" font-family="Arial, sans-serif" font-size="16" fill="#ffffff" opacity="0.7">ThaiTripster — placeholder</text></svg>