<svg xmlns="http://www.w3.org/2000/svg" viewBox="0 0 560 320" width="560" height="320" role="img" aria-label="Phuket (HKT), Hub Thailand"><defs><linearGradient id="sky" x1="0" y1="0" x2="0" y2="1"><stop offset="0" stop-color="#8fd3f4"/><stop offset="1" stop-color="#fce3b4"/></linearGradient><linearGradient id="sea" x1="0" y1="0" x2="0" y2="1"><stop offset="0" stop-color="#2bb7a6"/><stop offset="1" stop-color="#0f7a70"/></linearGradient><linearGradient id="lbl" x1="0" y1="0" x2="0" y2="1"><stop offset="0" stop-color="#0b1120" stop-opacity="0"/><stop offset="1" stop-color="#0b1120" stop-opacity="0.85"/></linearGradient></defs><rect width="560" height="320" fill="url(#sky)"/><circle cx="436" cy="83" r="60" fill="#ffd27a" opacity="0.9"/><circle cx="436" cy="83" r="90" fill="#ffd27a" opacity="0.25"/><path d="M0,320 L0,156 L70,180 L140,142 L210,151 L280,178 L350,183 L420,138 L490,165 L560,175 L560,320 Z" fill="#2f6b57" opacity="0.55"/><rect x="0" y="198" width="560" height="122" fill="url(#sea)"/><path d="M0,198 Q280.0,228 560,198 L560,320 L0,320 Z" fill="#f2e4c4" opacity="0.0"/><path d="M0,320 L0,275 Q280.0,256 560,275 L560,320 Z" fill="#f2e4c4"/><g transform="translate(78,288)"><path d="M0,0 Q6.6000000000000005,-44.0 2.2,-88.0" stroke="#6b4a2b" stroke-width="7.700000000000001" fill="none"/><path d="M2.2,-88.0 Q-39.07934933974201,-125.15068719961914 -47.358698679484014,-122.70137439923829" stroke="#1f6b4a" stroke-width="5.5" fill="none" stroke-linecap="round"/><path d="M2.2,-88.0 Q-18.084202417656158,-135.21581055785867 -23.368404835312315,-142.83162111571733" stroke="#1f6b4a" stroke-width="5.5" fill="none" stroke-linecap="round"/><path d="M2.2,-88.0 Q2.200000000000002,-138.05 2.2000000000000037,-148.5" stroke="#1f6b4a" stroke-width="5.5" fill="none" stroke-linecap="round"/><path d="M2.2,-88.0 Q22.484202417656157,-135.21581055785867 27.768404835312317,-142.83162111571733" stroke="#1f6b4a" stroke-width="5.5" fill="none" stroke-linecap="round"/><path d="M2.2,-88.0 Q43.47934933974201,-125.15068719961914 51.75869867948401,-122.70137439923829" stroke="#1f6b4a" stroke-width="5.5" fill="none" stroke-linecap="round"/></g><g transform="translate(134,300)"><path d="M0,0 Q4.800000000000001,-32.0 1.6,-64.0" stroke="#6b4a2b" stroke-width="5.6000000000000005" fill="none"/><path d="M1.6,-64.0 Q-32.92134497435782,-91.01868159972301 -34.442689948715646,-89.23736319944602" stroke="#1f6b4a" stroke-width="4.0" fill="none" stroke-linecap="round"/><path d="M1.6,-64.0 Q-15.197601758295384,-98.33877131480631 -16.99520351659077,-103.8775426296126" stroke="#1f6b4a" stroke-width="4.0" fill="none" stroke-linecap="round"/><path d="M1.6,-64.0 Q1.6000000000000014,-100.4 1.6000000000000028,-108.0" stroke="#1f6b4a" stroke-width="4.0" fill="none" stroke-linecap="round"/><path d="M1.6,-64.0 Q18.397601758295387,-98.33877131480631 20.195203516590777,-103.8775426296126" stroke="#1f6b4a" stroke-width="4.0" fill="none" stroke-linecap="round"/><path d="M1.6,-64.0 Q36.121344974357825,-91.01868159972301 37.64268994871564,-89.23736319944602" stroke="#1f6b4a" stroke-width="4.0" fill="none" stroke-linecap="round"/></g><g transform="translate(336,238)"><path d="M-34,0 Q0,18 34,0 L26,10 -26,10 Z" fill="#8a5a2b"/><rect x="-2" y="-30" width="3" height="30" fill="#5a3a1a"/></g><rect width="560" height="320" fill="#ffffff" opacity="0.05"/><rect x="0" y="180" width="560" height="140" fill="url(#lbl)"/><text x="40" y="262" font-family="Georgia, 'Times New Roman', serif" font-size="52" font-weight="700" fill="#ffffff">Phuket (HKT)</text><rect x="42" y="274" width="51" height="30" rx="15" fill="#0f8378"/><text x="52" y="295" font-family="Arial, sans-serif" font-size="18" font-weight="700" fill="#ffffff">HUB</text><text x="520" y="295" text-anchor="end" font-family="Arial, sans-serif" font-size="16" fill="#ffffff" opacity="0.7">ThaiTripster — placeholder</text></svg>