<svg xmlns="http://www.w3.org/2000/svg" viewBox="0 0 560 320" width="560" height="320" role="img" aria-label="Bangkok (BKK), Hub Thailand"><defs><linearGradient id="sky" x1="0" y1="0" x2="0" y2="1"><stop offset="0" stop-color="#3b3a6b"/><stop offset="1" stop-color="#b96b8f"/></linearGradient><linearGradient id="sea" x1="0" y1="0" x2="0" y2="1"><stop offset="0" stop-color="#25324f"/><stop offset="1" stop-color="#141a2e"/></linearGradient><linearGradient id="lbl" x1="0" y1="0" x2="0" y2="1"><stop offset="0" stop-color="#0b1120" stop-opacity="0"/><stop offset="1" stop-color="#0b1120" stop-opacity="0.85"/></linearGradient></defs><rect width="560" height="320" fill="url(#sky)"/><circle cx="436" cy="83" r="60" fill="#ffd9a0" opacity="0.9"/><circle cx="436" cy="83" r="90" fill="#ffd9a0" opacity="0.25"/><rect x="0" y="154" width="36" height="74" fill="#101a30"/><rect x="14" y="169" width="4" height="6" fill="#ffd98a" opacity="0.9"/><rect x="4" y="193" width="4" height="6" fill="#ffd98a" opacity="0.5"/><rect x="51" y="137" width="56" height="91" fill="#101a30"/><rect x="78" y="164" width="4" height="6" fill="#ffd98a" opacity="0.9"/><rect x="91" y="163" width="4" height="6" fill="#ffd98a" opacity="0.9"/><rect x="91" y="205" width="4" height="6" fill="#ffd98a" opacity="0.5"/><rect x="114" y="80" width="39" height="148" fill="#101a30"/><rect x="138" y="201" width="4" height="6" fill="#ffd98a" opacity="0.5"/><rect x="120" y="167" width="4" height="6" fill="#ffd98a" opacity="0.2"/><rect x="129" y="120" width="4" height="6" fill="#ffd98a" opacity="0.9"/><rect x="131" y="98" width="4" height="6" fill="#ffd98a" opacity="0.2"/><rect x="141" y="87" width="4" height="6" fill="#ffd98a" opacity="0.5"/><rect x="165" y="49" width="60" height="179" fill="#101a30"/><rect x="193" y="123" width="4" height="6" fill="#ffd98a" opacity="0.2"/><rect x="183" y="130" width="4" height="6" fill="#ffd98a" opacity="0.9"/><rect x="183" y="189" width="4" height="6" fill="#ffd98a" opacity="0.9"/><rect x="173" y="131" width="4" height="6" fill="#ffd98a" opacity="0.5"/><rect x="194" y="162" width="4" height="6" fill="#ffd98a" opacity="0.2"/><rect x="185" y="220" width="4" height="6" fill="#ffd98a" opacity="0.9"/><rect x="231" y="79" width="61" height="149" fill="#101a30"/><rect x="257" y="110" width="4" height="6" fill="#ffd98a" opacity="0.5"/><rect x="272" y="128" width="4" height="6" fill="#ffd98a" opacity="0.2"/><rect x="245" y="129" width="4" height="6" fill="#ffd98a" opacity="0.9"/><rect x="270" y="123" width="4" height="6" fill="#ffd98a" opacity="0.2"/><rect x="265" y="117" width="4" height="6" fill="#ffd98a" opacity="0.5"/><rect x="308" y="164" width="38" height="64" fill="#101a30"/><rect x="321" y="175" width="4" height="6" fill="#ffd98a" opacity="0.5"/><rect x="331" y="218" width="4" height="6" fill="#ffd98a" opacity="0.9"/><rect x="355" y="147" width="40" height="81" fill="#101a30"/><rect x="377" y="211" width="4" height="6" fill="#ffd98a" opacity="0.2"/><rect x="378" y="158" width="4" height="6" fill="#ffd98a" opacity="0.2"/><rect x="365" y="183" width="4" height="6" fill="#ffd98a" opacity="0.9"/><rect x="403" y="146" width="50" height="82" fill="#101a30"/><rect x="429" y="177" width="4" height="6" fill="#ffd98a" opacity="0.5"/><rect x="414" y="205" width="4" height="6" fill="#ffd98a" opacity="0.5"/><rect x="445" y="191" width="4" height="6" fill="#ffd98a" opacity="0.5"/><rect x="469" y="139" width="43" height="89" fill="#101a30"/><rect x="475" y="149" width="4" height="6" fill="#ffd98a" opacity="0.9"/><rect x="491" y="218" width="4" height="6" fill="#ffd98a" opacity="0.2"/><rect x="474" y="182" width="4" height="6" fill="#ffd98a" opacity="0.9"/><rect x="521" y="51" width="29" height="177" fill="#101a30"/><rect x="530" y="219" width="4" height="6" fill="#ffd98a" opacity="0.2"/><rect x="542" y="135" width="4" height="6" fill="#ffd98a" opacity="0.9"/><rect x="533" y="137" width="4" height="6" fill="#ffd98a" opacity="0.9"/><rect x="532" y="98" width="4" height="6" fill="#ffd98a" opacity="0.5"/><rect x="540" y="138" width="4" height="6" fill="#ffd98a" opacity="0.9"/><rect x="526" y="98" width="4" height="6" fill="#ffd98a" opacity="0.2"/><rect x="559" y="46" width="36" height="182" fill="#101a30"/><rect x="566" y="61" width="4" height="6" fill="#ffd98a" opacity="0.5"/><rect x="576" y="218" width="4" height="6" fill="#ffd98a" opacity="0.5"/><rect x="586" y="162" width="4" height="6" fill="#ffd98a" opacity="0.2"/><rect x="581" y="135" width="4" height="6" fill="#ffd98a" opacity="0.9"/><rect x="573" y="208" width="4" height="6" fill="#ffd98a" opacity="0.2"/><rect x="584" y="207" width="4" height="6" fill="#ffd98a" opacity="0.5"/><rect x="0" y="177" width="40" height="81" fill="#0a1122"/><rect x="22" y="188" width="4" height="6" fill="#ffd98a" opacity="0.2"/><rect x="7" y="222" width="4" height="6" fill="#ffd98a" opacity="0.2"/><rect x="10" y="189" width="4" height="6" fill="#ffd98a" opacity="0.5"/><rect x="46" y="139" width="31" height="119" fill="#0a1122"/><rect x="66" y="158" width="4" height="6" fill="#ffd98a" opacity="0.9"/><rect x="63" y="206" width="4" height="6" fill="#ffd98a" opacity="0.9"/><rect x="61" y="186" width="4" height="6" fill="#ffd98a" opacity="0.9"/><rect x="51" y="235" width="4" height="6" fill="#ffd98a" opacity="0.5"/><rect x="88" y="118" width="47" height="140" fill="#0a1122"/><rect x="112" y="210" width="4" height="6" fill="#ffd98a" opacity="0.9"/><rect x="112" y="205" width="4" height="6" fill="#ffd98a" opacity="0.5"/><rect x="95" y="214" width="4" height="6" fill="#ffd98a" opacity="0.2"/><rect x="94" y="150" width="4" height="6" fill="#ffd98a" opacity="0.2"/><rect x="111" y="222" width="4" height="6" fill="#ffd98a" opacity="0.5"/><rect x="147" y="156" width="44" height="102" fill="#0a1122"/><rect x="177" y="224" width="4" height="6" fill="#ffd98a" opacity="0.9"/><rect x="154" y="188" width="4" height="6" fill="#ffd98a" opacity="0.5"/><rect x="179" y="226" width="4" height="6" fill="#ffd98a" opacity="0.5"/><rect x="204" y="126" width="31" height="132" fill="#0a1122"/><rect x="211" y="173" width="4" height="6" fill="#ffd98a" opacity="0.5"/><rect x="215" y="246" width="4" height="6" fill="#ffd98a" opacity="0.9"/><rect x="222" y="200" width="4" height="6" fill="#ffd98a" opacity="0.5"/><rect x="214" y="174" width="4" height="6" fill="#ffd98a" opacity="0.5"/><rect x="218" y="186" width="4" height="6" fill="#ffd98a" opacity="0.9"/><rect x="250" y="105" width="45" height="153" fill="#0a1122"/><rect x="256" y="209" width="4" height="6" fill="#ffd98a" opacity="0.2"/><rect x="273" y="206" width="4" height="6" fill="#ffd98a" opacity="0.5"/><rect x="263" y="165" width="4" height="6" fill="#ffd98a" opacity="0.2"/><rect x="265" y="242" width="4" height="6" fill="#ffd98a" opacity="0.5"/><rect x="259" y="127" width="4" height="6" fill="#ffd98a" opacity="0.9"/><rect x="303" y="95" width="38" height="163" fill="#0a1122"/><rect x="317" y="238" width="4" height="6" fill="#ffd98a" opacity="0.5"/><rect x="309" y="168" width="4" height="6" fill="#ffd98a" opacity="0.2"/><rect x="314" y="121" width="4" height="6" fill="#ffd98a" opacity="0.5"/><rect x="330" y="142" width="4" height="6" fill="#ffd98a" opacity="0.5"/><rect x="333" y="203" width="4" height="6" fill="#ffd98a" opacity="0.5"/><rect x="332" y="123" width="4" height="6" fill="#ffd98a" opacity="0.9"/><rect x="349" y="196" width="52" height="62" fill="#0a1122"/><rect x="386" y="211" width="4" height="6" fill="#ffd98a" opacity="0.5"/><rect x="353" y="222" width="4" height="6" fill="#ffd98a" opacity="0.5"/><rect x="413" y="180" width="39" height="78" fill="#0a1122"/><rect x="440" y="247" width="4" height="6" fill="#ffd98a" opacity="0.2"/><rect x="435" y="190" width="4" height="6" fill="#ffd98a" opacity="0.2"/><rect x="466" y="142" width="42" height="116" fill="#0a1122"/><rect x="473" y="213" width="4" height="6" fill="#ffd98a" opacity="0.9"/><rect x="476" y="248" width="4" height="6" fill="#ffd98a" opacity="0.5"/><rect x="475" y="183" width="4" height="6" fill="#ffd98a" opacity="0.9"/><rect x="473" y="206" width="4" height="6" fill="#ffd98a" opacity="0.2"/><rect x="515" y="194" width="41" height="64" fill="#0a1122"/><rect x="545" y="231" width="4" height="6" fill="#ffd98a" opacity="0.9"/><rect x="538" y="248" width="4" height="6" fill="#ffd98a" opacity="0.2"/><rect x="0" y="228" width="560" height="320" fill="url(#sea)" opacity="0.5"/><rect width="560" height="320" fill="#ffffff" opacity="0.05"/><rect x="0" y="180" width="560" height="140" fill="url(#lbl)"/><text x="40" y="262" font-family="Georgia, 'Times New Roman', serif" font-size="52" font-weight="700" fill="#ffffff">Bangkok (BKK)</text><rect x="42" y="274" width="51" height="30" rx="15" fill="#0f8378"/><text x="52" y="295" font-family="Arial, sans-serif" font-size="18" font-weight="700" fill="#ffffff">HUB</text><text x="520" y="295" text-anchor="end" font-family="Arial, sans-serif" font-size="16" fill="#ffffff" opacity="0.7">ThaiTripster — placeholder</text></svg>