<svg xmlns="http://www.w3.org/2000/svg" viewBox="0 0 1000 680" width="1000" height="680" role="img" aria-label="Koh Chang, Southern Thailand"><defs><linearGradient id="sky" x1="0" y1="0" x2="0" y2="1"><stop offset="0" stop-color="#7ec9e8"/><stop offset="1" stop-color="#d5f2ec"/></linearGradient><linearGradient id="sea" x1="0" y1="0" x2="0" y2="1"><stop offset="0" stop-color="#25c3b0"/><stop offset="1" stop-color="#0d7d78"/></linearGradient><linearGradient id="lbl" x1="0" y1="0" x2="0" y2="1"><stop offset="0" stop-color="#0b1120" stop-opacity="0"/><stop offset="1" stop-color="#0b1120" stop-opacity="0.85"/></linearGradient></defs><rect width="1000" height="680" fill="url(#sky)"/><circle cx="780" cy="176" r="60" fill="#fff0c2" opacity="0.9"/><circle cx="780" cy="176" r="90" fill="#fff0c2" opacity="0.25"/><path d="M0,680 L0,400 L125,388 L250,392 L375,380 L500,375 L625,385 L750,369 L875,402 L1000,383 L1000,680 Z" fill="#1f5a4a" opacity="0.55"/><path d="M661.7504340082495,421 Q669.7504340082495,276.38096150834156 697.8330129786268,276.38096150834156 Q725.9155919490041,276.38096150834156 733.9155919490041,421 Z" fill="#1f5a4a" opacity="0.9"/><path d="M548.902982260103,421 Q556.902982260103,207.84056793048643 580.6057008744143,207.84056793048643 Q604.3084194887256,207.84056793048643 612.3084194887256,421 Z" fill="#1f5a4a" opacity="0.9"/><path d="M680.2768295995738,421 Q688.2768295995738,218.99260679774625 711.5289180115095,218.99260679774625 Q734.7810064234452,218.99260679774625 742.7810064234452,421 Z" fill="#1f5a4a" opacity="0.9"/><path d="M453.12665987317285,421 Q461.12665987317285,186.55208214302382 502.18997103939927,186.55208214302382 Q543.2532822056257,186.55208214302382 551.2532822056257,421 Z" fill="#1f5a4a" opacity="0.9"/><rect x="0" y="421" width="1000" height="259" fill="url(#sea)"/><path d="M0,421 Q500.0,451 1000,421 L1000,680 L0,680 Z" fill="#e9dcb8" opacity="0.0"/><path d="M0,680 L0,584 Q500.0,544 1000,584 L1000,680 Z" fill="#e9dcb8"/><g transform="translate(140,612)"><path d="M0,0 Q6.6000000000000005,-44.0 2.2,-88.0" stroke="#6b4a2b" stroke-width="7.700000000000001" fill="none"/><path d="M2.2,-88.0 Q-39.07934933974201,-125.15068719961914 -47.358698679484014,-122.70137439923829" stroke="#1f6b4a" stroke-width="5.5" fill="none" stroke-linecap="round"/><path d="M2.2,-88.0 Q-18.084202417656158,-135.21581055785867 -23.368404835312315,-142.83162111571733" stroke="#1f6b4a" stroke-width="5.5" fill="none" stroke-linecap="round"/><path d="M2.2,-88.0 Q2.200000000000002,-138.05 2.2000000000000037,-148.5" stroke="#1f6b4a" stroke-width="5.5" fill="none" stroke-linecap="round"/><path d="M2.2,-88.0 Q22.484202417656157,-135.21581055785867 27.768404835312317,-142.83162111571733" stroke="#1f6b4a" stroke-width="5.5" fill="none" stroke-linecap="round"/><path d="M2.2,-88.0 Q43.47934933974201,-125.15068719961914 51.75869867948401,-122.70137439923829" stroke="#1f6b4a" stroke-width="5.5" fill="none" stroke-linecap="round"/></g><g transform="translate(240,639)"><path d="M0,0 Q4.800000000000001,-32.0 1.6,-64.0" stroke="#6b4a2b" stroke-width="5.6000000000000005" fill="none"/><path d="M1.6,-64.0 Q-32.92134497435782,-91.01868159972301 -34.442689948715646,-89.23736319944602" stroke="#1f6b4a" stroke-width="4.0" fill="none" stroke-linecap="round"/><path d="M1.6,-64.0 Q-15.197601758295384,-98.33877131480631 -16.99520351659077,-103.8775426296126" stroke="#1f6b4a" stroke-width="4.0" fill="none" stroke-linecap="round"/><path d="M1.6,-64.0 Q1.6000000000000014,-100.4 1.6000000000000028,-108.0" stroke="#1f6b4a" stroke-width="4.0" fill="none" stroke-linecap="round"/><path d="M1.6,-64.0 Q18.397601758295387,-98.33877131480631 20.195203516590777,-103.8775426296126" stroke="#1f6b4a" stroke-width="4.0" fill="none" stroke-linecap="round"/><path d="M1.6,-64.0 Q36.121344974357825,-91.01868159972301 37.64268994871564,-89.23736319944602" stroke="#1f6b4a" stroke-width="4.0" fill="none" stroke-linecap="round"/></g><g transform="translate(600,461)"><path d="M-34,0 Q0,18 34,0 L26,10 -26,10 Z" fill="#8a5a2b"/><rect x="-2" y="-30" width="3" height="30" fill="#5a3a1a"/></g><rect width="1000" height="680" fill="#ffffff" opacity="0.05"/><rect x="0" y="540" width="1000" height="140" fill="url(#lbl)"/><text x="40" y="622" font-family="Georgia, 'Times New Roman', serif" font-size="52" font-weight="700" fill="#ffffff">Koh Chang</text><rect x="42" y="634" width="106" height="30" rx="15" fill="#0f8378"/><text x="52" y="655" font-family="Arial, sans-serif" font-size="18" font-weight="700" fill="#ffffff">SOUTHERN</text><text x="960" y="655" text-anchor="end" font-family="Arial, sans-serif" font-size="16" fill="#ffffff" opacity="0.7">ThaiTripster — placeholder</text></svg>