<svg xmlns="http://www.w3.org/2000/svg" viewBox="0 0 800 600" role="img" aria-label="Pai — photo coming soon">
  <defs>
    <linearGradient id="bg" x1="0" y1="0" x2="0" y2="1">
      <stop offset="0" stop-color="#123f33"/><stop offset="0.55" stop-color="#1d6a52"/><stop offset="1" stop-color="#7fb069"/>
    </linearGradient>
    <radialGradient id="glow" cx="0.75" cy="0.28" r="0.6"><stop offset="0" stop-color="#fff" stop-opacity="0.35"/><stop offset="1" stop-color="#fff" stop-opacity="0"/></radialGradient>
    <pattern id="dots" width="26" height="26" patternUnits="userSpaceOnUse"><circle cx="1.5" cy="1.5" r="1.5" fill="#ffffff" opacity="0.10"/></pattern>
  </defs>
  <rect width="800" height="600" fill="url(#bg)"/>
  <rect width="800" height="600" fill="url(#glow)"/>
  <rect width="800" height="600" fill="url(#dots)"/>
  
      <circle cx="600" cy="170" r="64" fill="#ffd98a" opacity="0.9"/>
      <g fill="#10281f" opacity="0.35"><path d="M0 380 L150 250 L300 380 L440 260 L600 400 L800 300 L800 600 L0 600 Z"/></g>
      <g fill="#0c2019" opacity="0.65"><path d="M0 460 L180 330 L340 460 L520 340 L680 470 L800 400 L800 600 L0 600 Z"/></g>
      <g fill="#081712" opacity="0.9"><path d="M0 540 Q200 470 420 530 T800 520 L800 600 L0 600 Z"/></g>
      <g stroke="#ffffff" stroke-width="0" fill="#fff" opacity="0.12"><ellipse cx="250" cy="430" rx="140" ry="16"/><ellipse cx="560" cy="470" rx="170" ry="18"/></g>
  <g font-family="Georgia, 'Times New Roman', serif">
    <text x="40" y="540" font-size="52" font-weight="700" fill="#ffffff" opacity="0.96">Pai</text>
    <text x="40" y="572" font-size="19" fill="#ffffff" opacity="0.75" font-family="Verdana, sans-serif">Mountain valley escape</text>
  </g>
</svg>