<svg xmlns="http://www.w3.org/2000/svg" viewBox="0 0 700 460" width="700" height="460" role="img" aria-label="Grand Adventure, 21 Days Thailand"><defs><linearGradient id="sky" x1="0" y1="0" x2="0" y2="1"><stop offset="0" stop-color="#cfeae6"/><stop offset="1" stop-color="#f4efe0"/></linearGradient><linearGradient id="sea" x1="0" y1="0" x2="0" y2="1"><stop offset="0" stop-color="#8fc7b6"/><stop offset="1" stop-color="#5c9a86"/></linearGradient><linearGradient id="lbl" x1="0" y1="0" x2="0" y2="1"><stop offset="0" stop-color="#0b1120" stop-opacity="0"/><stop offset="1" stop-color="#0b1120" stop-opacity="0.85"/></linearGradient></defs><rect width="700" height="460" fill="url(#sky)"/><circle cx="546" cy="119" r="60" fill="#fbe7a8" opacity="0.9"/><circle cx="546" cy="119" r="90" fill="#fbe7a8" opacity="0.25"/><path d="M0,460 L0,121 L88,207 L175,197 L262,136 L350,164 L438,159 L525,183 L612,200 L700,116 L700,460 Z" fill="#7fae9a" opacity="0.5"/><path d="M0,460 L0,289 L88,288 L175,163 L262,167 L350,272 L438,258 L525,249 L612,198 L700,240 L700,460 Z" fill="#5c9a86" opacity="0.7"/><path d="M0,460 L0,243 L88,292 L175,264 L262,302 L350,305 L438,215 L525,207 L612,339 L700,246 L700,460 Z" fill="#3d6f57" opacity="0.95"/><rect x="0" y="414" width="700" height="460" fill="#cdd9b0"/><g opacity="0.5"><ellipse cx="140" cy="184" rx="70" ry="16" fill="#ffffff"/><ellipse cx="350" cy="184" rx="70" ry="16" fill="#ffffff"/><ellipse cx="560" cy="184" rx="70" ry="16" fill="#ffffff"/></g><rect width="700" height="460" fill="#ffffff" opacity="0.05"/><rect x="0" y="320" width="700" height="140" fill="url(#lbl)"/><text x="40" y="402" font-family="Georgia, 'Times New Roman', serif" font-size="52" font-weight="700" fill="#ffffff">Grand Adventure</text><rect x="42" y="414" width="95" height="30" rx="15" fill="#0f8378"/><text x="52" y="435" font-family="Arial, sans-serif" font-size="18" font-weight="700" fill="#ffffff">21 DAYS</text><text x="660" y="435" text-anchor="end" font-family="Arial, sans-serif" font-size="16" fill="#ffffff" opacity="0.7">ThaiTripster — placeholder</text></svg>